<svg width="262" height="70" viewBox="0 0 262 70" fill="none" xmlns="http://www.w3.org/2000/svg">
<path fill-rule="evenodd" clip-rule="evenodd" d="M0.63158 52.6749L57.1678 4.98894C58.0117 4.14968 59.3757 4.14968 60.2174 4.98894L69.3644 14.0879C70.2105 14.925 70.2105 16.2831 69.3644 17.1224L12.8259 64.8105C11.9842 65.6475 10.62 65.6475 9.77632 64.8105L0.629332 55.7071C-0.21007 54.87 -0.21007 53.5119 0.63158 52.6749V52.6749Z" fill="#C0A04C"/>
<path fill-rule="evenodd" clip-rule="evenodd" d="M31.3537 38.3331L29.6879 39.7368L35.14 45.989L36.8038 44.585L31.3537 38.3331Z" fill="#937B3B"/>
<path fill-rule="evenodd" clip-rule="evenodd" d="M39.2106 37.4044L37.5448 38.8084L40.1332 41.7753L41.7968 40.3736L39.2106 37.4044Z" fill="#937B3B"/>
<path fill-rule="evenodd" clip-rule="evenodd" d="M21.3608 46.754L19.6948 48.1603L25.1494 54.4144L26.8152 53.0127L21.3608 46.754Z" fill="#937B3B"/>
<path fill-rule="evenodd" clip-rule="evenodd" d="M68.2232 12.9545L67.5192 13.5474L69.8715 16.244C70.1033 15.5071 69.9524 14.6743 69.3644 14.0902L68.2232 12.9545V12.9545Z" fill="#937B3B"/>
<path fill-rule="evenodd" clip-rule="evenodd" d="M29.2177 45.8256L27.5541 47.2293L30.1445 50.2049L31.8084 48.7989L29.2177 45.8256Z" fill="#937B3B"/>
<path fill-rule="evenodd" clip-rule="evenodd" d="M61.3301 13.0743L59.6643 14.476L65.1034 20.715L66.7672 19.3132L61.3301 13.0743Z" fill="#937B3B"/>
<path fill-rule="evenodd" clip-rule="evenodd" d="M41.3444 29.9119L39.6808 31.3159L45.1287 37.5658L46.7922 36.1596L41.3444 29.9119Z" fill="#937B3B"/>
<path fill-rule="evenodd" clip-rule="evenodd" d="M59.1944 20.5646L57.5286 21.9683L60.1082 24.9287L61.7763 23.5228L59.1944 20.5646Z" fill="#937B3B"/>
<path fill-rule="evenodd" clip-rule="evenodd" d="M49.2035 28.9855L47.5354 30.3872L50.1196 33.3541L51.7854 31.9501L49.2035 28.9855Z" fill="#937B3B"/>
<path fill-rule="evenodd" clip-rule="evenodd" d="M51.335 21.4952L49.6736 22.897L55.115 29.1404L56.7808 27.7364L51.335 21.4952Z" fill="#937B3B"/>
<path fill-rule="evenodd" clip-rule="evenodd" d="M67.7924 0.0209351H2.20566C0.999023 0.0209351 0.0194702 0.995455 0.0194702 2.2009V15.2804C0.0194702 16.4836 0.998773 17.4604 2.20566 17.4604H67.7924C69.0013 17.4604 69.9786 16.4839 69.9786 15.2804V2.2009C69.9786 0.995205 68.9991 0.0209351 67.7924 0.0209351ZM67.7924 52.3391H2.20566C0.999023 52.3391 0.0194702 53.3136 0.0194702 54.5168V67.5986C0.0194702 68.8018 0.998773 69.7786 2.20566 69.7786H67.7924C69.0013 69.7786 69.9786 68.802 69.9786 67.5986V54.5168C69.9786 53.3136 68.9991 52.3391 67.7924 52.3391Z" fill="#EFC75E"/>
<path fill-rule="evenodd" clip-rule="evenodd" d="M4.3916 8.74054H6.57779V0.0209351H4.3916V8.74054ZM10.9502 4.38061H13.1364V0.0209351H10.9502V4.38061ZM17.5085 8.74054H19.6947V0.0209351H17.5085V8.74054ZM24.0671 4.38061H26.2533V0.0209351H24.0671V4.38061ZM30.6257 8.74054H32.8119V0.0209351H30.6257V8.74054ZM37.184 4.38061H39.3702V0.0209351H37.184V4.38061ZM43.7426 8.74054H45.9288V0.0209351H43.7426V8.74054ZM50.3009 4.38061H52.4871V0.0209351H50.3009V4.38061ZM56.8595 8.74054H59.0457V0.0209351H56.8595V8.74054ZM63.4201 0.0209351V4.38086H65.6063V0.0209351H63.4201ZM4.3916 69.7785H6.57779V61.0589H4.3916V69.7785ZM10.9502 69.7786H13.1364V65.4186H10.9502V69.7786ZM17.5085 69.7785H19.6947V61.0589H17.5085V69.7785ZM24.0671 69.7786H26.2533V65.4186H24.0671V69.7786ZM30.6257 69.7785H32.8119V61.0589H30.6257V69.7785ZM37.184 69.7786H39.3702V65.4186H37.184V69.7786ZM43.7426 69.7785H45.9288V61.0589H43.7426V69.7785ZM50.3009 69.7786H52.4871V65.4186H50.3009V69.7786ZM56.8595 69.7785H59.0457V61.0589H56.8595V69.7785ZM63.4201 69.7786H65.6063V65.4186H63.4201V69.7786V69.7786Z" fill="#B39546"/>
<path d="M102.369 33.2725H110.979V38H95.6094V34.4393L104.018 20.9809H95.8105V16.2332H110.858V19.6732L102.369 33.2725ZM125.443 36.0084C124.263 37.6044 122.68 38.4023 120.696 38.4023C118.697 38.4023 117.182 37.7184 116.149 36.3504C115.116 34.969 114.6 32.964 114.6 30.3354V16.2332H120.293V30.4762C120.32 32.5952 121.024 33.6547 122.405 33.6547C123.706 33.6547 124.645 33.0914 125.222 31.9648V16.2332H130.955V38H125.604L125.443 36.0084ZM141.638 10.882V16.2332H144.554V20.5182H141.638V31.3211C141.638 32.1794 141.751 32.7695 141.979 33.0914C142.221 33.4133 142.677 33.5742 143.347 33.5742C143.897 33.5742 144.347 33.5273 144.695 33.4334L144.655 37.8592C143.689 38.2213 142.643 38.4023 141.517 38.4023C137.842 38.4023 135.985 36.2967 135.944 32.0855V20.5182H133.43V16.2332H135.944V10.882H141.638ZM154.311 10.882V16.2332H157.228V20.5182H154.311V31.3211C154.311 32.1794 154.425 32.7695 154.653 33.0914C154.895 33.4133 155.351 33.5742 156.021 33.5742C156.571 33.5742 157.02 33.5273 157.369 33.4334L157.329 37.8592C156.363 38.2213 155.317 38.4023 154.191 38.4023C150.516 38.4023 148.658 36.2967 148.618 32.0855V20.5182H146.104V16.2332H148.618V10.882H154.311ZM169.158 38.4023C166.234 38.4023 163.954 37.5306 162.318 35.7871C160.682 34.0436 159.864 31.5491 159.864 28.3035V26.5734C159.864 23.1401 160.615 20.4913 162.117 18.6271C163.619 16.763 165.771 15.8309 168.574 15.8309C171.31 15.8309 173.369 16.7093 174.75 18.4662C176.132 20.2097 176.836 22.7981 176.863 26.2314V29.0277H165.537C165.617 30.6371 165.973 31.8173 166.603 32.5684C167.233 33.306 168.206 33.6748 169.52 33.6748C171.424 33.6748 173.014 33.0243 174.288 31.7234L176.521 35.1635C175.823 36.1291 174.811 36.9137 173.483 37.5172C172.155 38.1073 170.714 38.4023 169.158 38.4023ZM165.577 25.0445H171.27V24.5215C171.243 23.2206 171.029 22.2348 170.626 21.5643C170.224 20.8937 169.527 20.5584 168.534 20.5584C167.542 20.5584 166.818 20.9138 166.362 21.6246C165.919 22.3354 165.657 23.4754 165.577 25.0445ZM190.824 21.7252L188.933 21.5643C187.377 21.5643 186.324 22.2482 185.775 23.6162V38H180.061V16.2332H185.433L185.594 18.5869C186.492 16.7495 187.733 15.8309 189.315 15.8309C189.959 15.8309 190.482 15.918 190.884 16.0924L190.824 21.7252ZM199.112 16.2332L199.273 18.2449C200.547 16.6355 202.23 15.8309 204.323 15.8309C206.495 15.8309 208.031 16.8099 208.929 18.768C210.177 16.8099 211.954 15.8309 214.261 15.8309C218.069 15.8309 220.021 18.4662 220.115 23.7369V38H214.421V24.099C214.421 22.8383 214.247 21.9398 213.898 21.4033C213.55 20.8669 212.96 20.5986 212.128 20.5986C211.069 20.5986 210.277 21.2491 209.754 22.55L209.795 23.234V38H204.101V24.1393C204.101 22.892 203.934 21.9934 203.598 21.4436C203.263 20.8803 202.666 20.5986 201.808 20.5986C200.829 20.5986 200.051 21.1284 199.474 22.1879V38H193.781V16.2332H199.112ZM234.679 38C234.519 37.6647 234.358 37.1014 234.197 36.3102C233.177 37.7049 231.796 38.4023 230.053 38.4023C228.229 38.4023 226.713 37.7988 225.506 36.5918C224.312 35.3848 223.716 33.8223 223.716 31.9045C223.716 29.6245 224.44 27.8609 225.888 26.6137C227.35 25.3664 229.449 24.7294 232.185 24.7025H233.915V22.9523C233.915 21.9733 233.747 21.2826 233.412 20.8803C233.077 20.4779 232.587 20.2768 231.944 20.2768C230.522 20.2768 229.811 21.1083 229.811 22.7713H224.118C224.118 20.7596 224.869 19.1033 226.371 17.8023C227.887 16.488 229.798 15.8309 232.104 15.8309C234.492 15.8309 236.336 16.4545 237.637 17.7018C238.951 18.9356 239.608 20.7059 239.608 23.0127V33.2523C239.635 35.1299 239.903 36.5985 240.413 37.658V38H234.679ZM231.32 33.9363C231.95 33.9363 232.487 33.8089 232.929 33.5541C233.372 33.2993 233.7 32.9975 233.915 32.6488V28.1225H232.547C231.581 28.1225 230.817 28.4309 230.254 29.0479C229.704 29.6648 229.429 30.4896 229.429 31.5223C229.429 33.1316 230.059 33.9363 231.32 33.9363ZM248.943 16.2332L249.104 18.3857C250.391 16.6825 252.074 15.8309 254.153 15.8309C257.895 15.8309 259.819 18.4528 259.927 23.6967V38H254.213V24.1191C254.213 22.8853 254.026 21.9934 253.65 21.4436C253.288 20.8803 252.644 20.5986 251.719 20.5986C250.686 20.5986 249.881 21.1284 249.305 22.1879V38H243.591V16.2332H248.943Z" fill="#846219"/>
<path d="M100.555 51.4828L104.043 61.6157L107.548 51.4828H108.742V63H107.84V58.0087L107.919 52.9857L104.391 63H103.695L100.183 53.0332L100.262 57.9771V63H99.3605V51.4828H100.555ZM119.513 63.1582C118.506 63.1582 117.717 62.8286 117.148 62.1694C116.578 61.5103 116.288 60.5716 116.278 59.3534V58.3093C116.278 57.0542 116.552 56.0707 117.1 55.3588C117.649 54.6416 118.403 54.283 119.363 54.283C120.291 54.283 120.997 54.5862 121.483 55.1927C121.973 55.7991 122.224 56.7272 122.234 57.9771V58.7997H117.148V59.2822C117.148 60.2631 117.356 61.0198 117.773 61.5524C118.195 62.0851 118.788 62.3514 119.553 62.3514C120.396 62.3514 121.079 62.0429 121.601 61.4259L122.06 62.0112C121.501 62.7759 120.652 63.1582 119.513 63.1582ZM119.363 55.1057C118.672 55.1057 118.139 55.3509 117.765 55.8413C117.396 56.3265 117.193 57.0384 117.156 57.9771H121.356V57.7477C121.314 55.9863 120.649 55.1057 119.363 55.1057ZM134.033 63C133.954 62.7258 133.902 62.3303 133.875 61.8135C133.612 62.2406 133.271 62.5729 132.855 62.8102C132.443 63.0422 131.995 63.1582 131.51 63.1582C130.772 63.1582 130.197 62.9499 129.786 62.5333C129.374 62.1167 129.169 61.5234 129.169 60.7535C129.169 59.915 129.453 59.2506 130.023 58.7602C130.598 58.2697 131.389 58.0219 132.396 58.0166H133.867V56.8222C133.867 56.2104 133.714 55.7728 133.408 55.5091C133.108 55.2401 132.665 55.1057 132.08 55.1057C131.536 55.1057 131.091 55.2639 130.743 55.5803C130.395 55.8967 130.221 56.3054 130.221 56.8063L129.343 56.7984C129.343 56.0971 129.606 55.5038 130.134 55.0187C130.661 54.5282 131.323 54.283 132.119 54.283C132.979 54.283 133.63 54.4992 134.073 54.9316C134.516 55.3641 134.737 55.9942 134.737 56.8222V61.0225C134.737 61.8609 134.814 62.4885 134.967 62.9051V63H134.033ZM131.621 62.3118C132.138 62.3118 132.594 62.1773 132.989 61.9084C133.39 61.6395 133.683 61.2809 133.867 60.8326V58.7522H132.475C131.674 58.7628 131.07 58.9421 130.664 59.2901C130.258 59.6329 130.055 60.097 130.055 60.6823C130.055 61.7687 130.577 62.3118 131.621 62.3118ZM146.814 60.8959C146.814 60.5268 146.661 60.2051 146.355 59.9309C146.049 59.6514 145.529 59.3481 144.796 59.0212C144.069 58.689 143.56 58.4147 143.27 58.1985C142.98 57.9771 142.766 57.7371 142.629 57.4787C142.492 57.2203 142.423 56.9145 142.423 56.5611C142.423 55.902 142.661 55.3588 143.135 54.9316C143.61 54.4992 144.224 54.283 144.978 54.283C145.791 54.283 146.439 54.5124 146.924 54.9712C147.409 55.43 147.652 56.0364 147.652 56.7905H146.774C146.774 56.3054 146.608 55.9046 146.276 55.5882C145.943 55.2665 145.511 55.1057 144.978 55.1057C144.462 55.1057 144.05 55.2375 143.744 55.5012C143.444 55.7648 143.294 56.1076 143.294 56.5295C143.294 56.8723 143.41 57.1518 143.642 57.368C143.874 57.5842 144.375 57.8769 145.145 58.246C145.941 58.594 146.489 58.8814 146.79 59.1082C147.09 59.335 147.317 59.5881 147.47 59.8676C147.623 60.1418 147.7 60.4687 147.7 60.8484C147.7 61.5551 147.454 62.1167 146.964 62.5333C146.473 62.9499 145.827 63.1582 145.026 63.1582C144.177 63.1582 143.489 62.9262 142.961 62.4621C142.439 61.998 142.178 61.3995 142.178 60.6665H143.064C143.091 61.1991 143.267 61.6131 143.594 61.9084C143.926 62.1984 144.404 62.3435 145.026 62.3435C145.564 62.3435 145.996 62.2116 146.323 61.9479C146.65 61.6843 146.814 61.3336 146.814 60.8959ZM159.752 61.9796C159.267 62.7653 158.515 63.1582 157.498 63.1582C156.722 63.1582 156.137 62.8893 155.742 62.3514C155.346 61.8135 155.146 61.0225 155.14 59.9783V54.4412H156.01V59.9546C156.01 60.7298 156.148 61.3178 156.422 61.7186C156.696 62.1193 157.092 62.3197 157.608 62.3197C158.716 62.3197 159.425 61.7818 159.736 60.7061V54.4412H160.622V63H159.768L159.752 61.9796ZM171.717 55.2639C171.506 55.227 171.322 55.2085 171.164 55.2085C170.679 55.2085 170.27 55.3746 169.938 55.7068C169.611 56.0391 169.379 56.5005 169.242 57.0911V63H168.363V54.4412H169.226L169.242 55.7227C169.658 54.7629 170.312 54.283 171.203 54.283C171.435 54.283 171.612 54.3173 171.733 54.3858L171.717 55.2639ZM181.333 63.1582C180.326 63.1582 179.538 62.8286 178.968 62.1694C178.399 61.5103 178.109 60.5716 178.098 59.3534V58.3093C178.098 57.0542 178.372 56.0707 178.921 55.3588C179.469 54.6416 180.223 54.283 181.183 54.283C182.111 54.283 182.818 54.5862 183.303 55.1927C183.794 55.7991 184.044 56.7272 184.055 57.9771V58.7997H178.968V59.2822C178.968 60.2631 179.177 61.0198 179.593 61.5524C180.015 62.0851 180.608 62.3514 181.373 62.3514C182.217 62.3514 182.9 62.0429 183.422 61.4259L183.881 62.0112C183.322 62.7759 182.473 63.1582 181.333 63.1582ZM181.183 55.1057C180.492 55.1057 179.96 55.3509 179.585 55.8413C179.216 56.3265 179.013 57.0384 178.976 57.9771H183.177V57.7477C183.134 55.9863 182.47 55.1057 181.183 55.1057ZM206.831 52.3371H203.556V63H202.646V52.3371H199.379V51.4828H206.831V52.3371ZM217.522 63C217.443 62.7258 217.391 62.3303 217.364 61.8135C217.101 62.2406 216.76 62.5729 216.344 62.8102C215.933 63.0422 215.484 63.1582 214.999 63.1582C214.261 63.1582 213.686 62.9499 213.275 62.5333C212.863 62.1167 212.658 61.5234 212.658 60.7535C212.658 59.915 212.942 59.2506 213.512 58.7602C214.087 58.2697 214.878 58.0219 215.885 58.0166H217.356V56.8222C217.356 56.2104 217.203 55.7728 216.898 55.5091C216.597 55.2401 216.154 55.1057 215.569 55.1057C215.025 55.1057 214.58 55.2639 214.232 55.5803C213.884 55.8967 213.71 56.3054 213.71 56.8063L212.832 56.7984C212.832 56.0971 213.095 55.5038 213.623 55.0187C214.15 54.5282 214.812 54.283 215.608 54.283C216.468 54.283 217.119 54.4992 217.562 54.9316C218.005 55.3641 218.226 55.9942 218.226 56.8222V61.0225C218.226 61.8609 218.303 62.4885 218.456 62.9051V63H217.522ZM215.11 62.3118C215.627 62.3118 216.083 62.1773 216.478 61.9084C216.879 61.6395 217.172 61.2809 217.356 60.8326V58.7522H215.964C215.163 58.7628 214.559 58.9421 214.153 59.2901C213.747 59.6329 213.544 60.097 213.544 60.6823C213.544 61.7687 214.066 62.3118 215.11 62.3118ZM231.861 59.124C231.861 60.4424 231.632 61.4443 231.173 62.1299C230.714 62.8154 230.028 63.1582 229.116 63.1582C228.125 63.1582 227.384 62.7627 226.893 61.9717V66.2906H226.023V54.4412H226.83L226.87 55.6119C227.376 54.726 228.117 54.283 229.092 54.283C230.015 54.283 230.706 54.61 231.165 55.2639C231.624 55.9178 231.856 56.9171 231.861 58.2618V59.124ZM230.983 58.3251C230.983 57.2282 230.812 56.4214 230.469 55.9046C230.131 55.3878 229.601 55.1294 228.879 55.1294C227.951 55.1294 227.289 55.6014 226.893 56.5453V61.0541C227.289 61.9137 227.956 62.3435 228.895 62.3435C229.601 62.3435 230.123 62.0851 230.461 61.5683C230.804 61.0515 230.978 60.2552 230.983 59.1794V58.3251ZM242.126 63.1582C241.118 63.1582 240.33 62.8286 239.761 62.1694C239.191 61.5103 238.901 60.5716 238.89 59.3534V58.3093C238.89 57.0542 239.165 56.0707 239.713 55.3588C240.262 54.6416 241.016 54.283 241.975 54.283C242.904 54.283 243.61 54.5862 244.095 55.1927C244.586 55.7991 244.836 56.7272 244.847 57.9771V58.7997H239.761V59.2822C239.761 60.2631 239.969 61.0198 240.385 61.5524C240.807 62.0851 241.401 62.3514 242.165 62.3514C243.009 62.3514 243.692 62.0429 244.214 61.4259L244.673 62.0112C244.114 62.7759 243.265 63.1582 242.126 63.1582ZM241.975 55.1057C241.285 55.1057 240.752 55.3509 240.378 55.8413C240.008 56.3265 239.805 57.0384 239.768 57.9771H243.969V57.7477C243.927 55.9863 243.262 55.1057 241.975 55.1057ZM256.401 60.8959C256.401 60.5268 256.248 60.2051 255.942 59.9309C255.636 59.6514 255.117 59.3481 254.384 59.0212C253.656 58.689 253.147 58.4147 252.857 58.1985C252.567 57.9771 252.354 57.7371 252.216 57.4787C252.079 57.2203 252.011 56.9145 252.011 56.5611C252.011 55.902 252.248 55.3588 252.723 54.9316C253.197 54.4992 253.812 54.283 254.566 54.283C255.378 54.283 256.026 54.5124 256.512 54.9712C256.997 55.43 257.239 56.0364 257.239 56.7905H256.361C256.361 56.3054 256.195 55.9046 255.863 55.5882C255.531 55.2665 255.098 55.1057 254.566 55.1057C254.049 55.1057 253.638 55.2375 253.332 55.5012C253.031 55.7648 252.881 56.1076 252.881 56.5295C252.881 56.8723 252.997 57.1518 253.229 57.368C253.461 57.5842 253.962 57.8769 254.732 58.246C255.528 58.594 256.077 58.8814 256.377 59.1082C256.678 59.335 256.905 59.5881 257.057 59.8676C257.21 60.1418 257.287 60.4687 257.287 60.8484C257.287 61.5551 257.042 62.1167 256.551 62.5333C256.061 62.9499 255.415 63.1582 254.613 63.1582C253.764 63.1582 253.076 62.9262 252.549 62.4621C252.027 61.998 251.766 61.3995 251.766 60.6665H252.651C252.678 61.1991 252.855 61.6131 253.181 61.9084C253.514 62.1984 253.991 62.3435 254.613 62.3435C255.151 62.3435 255.584 62.2116 255.91 61.9479C256.237 61.6843 256.401 61.3336 256.401 60.8959Z" fill="#846219"/>
</svg>
